<svg width="24" height="25" viewBox="0 0 24 25" fill="none" xmlns="http://www.w3.org/2000/svg">
<path fill-rule="evenodd" clip-rule="evenodd" d="M13.917 5.48657C13.917 7.95114 11.921 9.94922 9.459 9.94922C6.997 9.94922 5 7.95114 5 5.48657C5 3.02201 6.997 1.02393 9.459 1.02393C11.921 1.02393 13.917 3.02201 13.917 5.48657Z" fill="#503291"/>
<path fill-rule="evenodd" clip-rule="evenodd" d="M18 23.5184V18.7504C18 15.0415 14.832 12.0354 10.923 12.0354H8.077C4.168 12.0354 1 15.0415 1 18.7504V23.5184H18Z" fill="#503291"/>
<path fill-rule="evenodd" clip-rule="evenodd" d="M17.0005 2.52744C16.605 2.13156 15.949 2.14643 15.5352 2.56066C15.1214 2.9749 15.1065 3.63162 15.502 4.0275L17.606 6.13371L15.5681 8.17374C15.1543 8.58797 15.1394 9.2447 15.5349 9.64058C15.9304 10.0365 16.5864 10.0216 17.0002 9.60735L19.0381 7.56732L21.1409 9.67234C21.5364 10.0682 22.1925 10.0533 22.6063 9.63911C23.0201 9.22487 23.0349 8.56815 22.6394 8.17227L20.5366 6.06725L22.5728 4.02898C22.9866 3.61475 23.0014 2.95802 22.606 2.56214C22.2105 2.16626 21.5545 2.18114 21.1407 2.59537L19.1045 4.63364L17.0005 2.52744Z" fill="#CF1B48"/>
</svg>
