<svg width="24" height="30" viewBox="0 0 24 30" fill="none" xmlns="http://www.w3.org/2000/svg">
<path fill-rule="evenodd" clip-rule="evenodd" d="M16.9342 9.3736C15.0442 9.55415 13.3642 10.6494 12.2042 12.2863H4.95424C4.07424 12.2863 3.34424 11.4077 3.34424 10.3485C3.34424 9.27732 4.07424 8.39868 4.95424 8.39868H15.5542C16.1442 8.39868 16.6642 8.79587 16.9342 9.3736Z" fill="#7D7D89"/>
<path fill-rule="evenodd" clip-rule="evenodd" d="M12.0041 12.5872C11.2741 13.6945 10.7741 15.0184 10.5941 16.4748H3.52406C2.64406 16.4748 1.91406 15.5962 1.91406 14.537C1.91406 13.4658 2.64406 12.5872 3.52406 12.5872H12.0041Z" fill="#7D7D89"/>
<path fill-rule="evenodd" clip-rule="evenodd" d="M10.9441 20.6632H3.52406C2.64406 20.6632 1.91406 19.7846 1.91406 18.7254C1.91406 17.6542 2.64406 16.7876 3.52406 16.7876H10.5541C10.5241 17.1126 10.5041 17.4375 10.5041 17.7746C10.5041 18.7856 10.6541 19.7605 10.9441 20.6632Z" fill="#7D7D89"/>
<path fill-rule="evenodd" clip-rule="evenodd" d="M13.7241 24.8519H3.52406C2.64406 24.8519 1.91406 23.9733 1.91406 22.9141C1.91406 21.8429 2.64406 20.9763 3.52406 20.9763H11.0341C11.5841 22.5771 12.5241 23.9252 13.7241 24.8519Z" fill="#7D7D89"/>
<path fill-rule="evenodd" clip-rule="evenodd" d="M13.8185 6.15408C13.8185 7.21807 13.0905 8.0943 12.2065 8.0943H1.61151C0.727512 8.0943 -0.000488281 7.21807 -0.000488281 6.15408C-0.000488281 5.09009 0.727512 4.21387 1.61151 4.21387H12.2065C13.0905 4.21387 13.8185 5.09009 13.8185 6.15408Z" fill="#7D7D89"/>
<path fill-rule="evenodd" clip-rule="evenodd" d="M19.344 20.3919C19.1022 20.7471 18.788 20.9859 18.4185 21.1069C18.2582 21.1599 18.1859 21.2619 18.194 21.4627C18.2 21.659 18.1924 21.8578 18.1924 22.0547C18.1924 22.2307 18.1185 22.3249 17.9739 22.3288C17.7978 22.3347 17.6201 22.3347 17.444 22.3308C17.2886 22.3269 17.2163 22.2209 17.2152 22.0397C17.213 21.8958 17.213 21.7499 17.212 21.606C17.2087 21.2887 17.2005 21.2757 16.9462 21.2259C16.6207 21.1638 16.3016 21.0748 16.0033 20.9008C15.769 20.7628 15.744 20.6928 15.8114 20.3978C15.862 20.178 15.912 19.9589 15.9685 19.7411C16.0348 19.4899 16.0913 19.4578 16.2848 19.5788C16.6147 19.7849 16.9652 19.9 17.331 19.955C17.5685 19.9909 17.7995 19.9628 18.0179 19.847C18.4266 19.6318 18.4891 19.0621 18.1451 18.72C18.0288 18.6029 17.8951 18.5178 17.7554 18.4439C17.3967 18.2529 17.0228 18.109 16.6853 17.865C16.137 17.4699 15.788 16.927 15.8288 16.123C15.8745 15.2151 16.3016 14.648 16.9935 14.3451C17.2793 14.2202 17.281 14.226 17.2826 13.8663C17.2837 13.7433 17.281 13.6223 17.2837 13.5013C17.2902 13.2311 17.3283 13.1834 17.5511 13.1762C17.6201 13.1742 17.6897 13.1762 17.7587 13.1762C18.2364 13.1762 18.2364 13.1762 18.2375 13.7492C18.2397 14.1561 18.2397 14.158 18.5755 14.2202C18.8337 14.2692 19.0788 14.3601 19.3174 14.487C19.4478 14.557 19.4984 14.6669 19.4571 14.8331C19.3962 15.081 19.3413 15.3309 19.275 15.5762C19.212 15.8091 19.1511 15.8431 18.9652 15.7351C18.5929 15.5199 18.2016 15.429 17.7902 15.4552C17.6832 15.463 17.5777 15.48 17.4772 15.533C17.1223 15.7201 17.0641 16.193 17.3674 16.4841C17.5212 16.632 17.6957 16.7379 17.8777 16.8289C18.1924 16.9852 18.5098 17.1369 18.8082 17.3358C19.7609 17.969 20.0168 19.4088 19.344 20.3919ZM17.75 10.2319C14.2984 10.2319 11.5 13.6001 11.5 17.7545C11.5 21.9089 14.2984 25.277 17.75 25.277C21.2016 25.277 24 21.9089 24 17.7545C24 13.6001 21.2016 10.2319 17.75 10.2319Z" fill="#7D7D89"/>
</svg>
