<svg width="17" height="18" viewBox="0 0 17 18" fill="none" xmlns="http://www.w3.org/2000/svg">
<path fill-rule="evenodd" clip-rule="evenodd" d="M3.61863 9.00001C3.61863 8.41546 3.70832 7.85495 3.8686 7.32932L1.06474 5.01318C0.518263 6.21337 0.210449 7.56584 0.210449 9.00001C0.210449 10.4331 0.518003 11.7845 1.06357 12.984L3.86587 10.6634C3.70715 10.1401 3.61863 9.58175 3.61863 9.00001Z" fill="#FBBC05"/>
<path fill-rule="evenodd" clip-rule="evenodd" d="M8.5408 3.68169C9.71473 3.68169 10.7751 4.13167 11.6082 4.86795L14.0317 2.2499C12.5549 0.859041 10.6614 0 8.5408 0C5.24844 0 2.41884 2.03673 1.06396 5.01278L3.8677 7.32892C4.51374 5.20754 6.3553 3.68169 8.5408 3.68169Z" fill="#EA4335"/>
<path fill-rule="evenodd" clip-rule="evenodd" d="M8.5408 14.3186C6.35543 14.3186 4.51387 12.7928 3.86783 10.6714L1.06396 12.9871C2.41884 15.9636 5.24844 18.0003 8.5408 18.0003C10.5728 18.0003 12.5129 17.2197 13.9689 15.7573L11.3075 13.5316C10.5565 14.0433 9.61087 14.3186 8.5408 14.3186Z" fill="#34A853"/>
<path fill-rule="evenodd" clip-rule="evenodd" d="M16.4934 8.99952C16.4934 8.4677 16.4176 7.89496 16.304 7.36328H8.54102V10.8404H13.0095C12.7861 12.0259 12.178 12.9373 11.3077 13.5304L13.9691 15.7561C15.4985 14.2206 16.4934 11.933 16.4934 8.99952Z" fill="#4285F4"/>
</svg>
