<svg width="25" height="26" viewBox="0 0 25 26" fill="none" xmlns="http://www.w3.org/2000/svg">
<path d="M12.4614 9.03142L12.4522 16.0363L8.55994 18.0294" stroke="#503291" stroke-width="2.4" stroke-linecap="round" stroke-linejoin="round"/>
<path fill-rule="evenodd" clip-rule="evenodd" d="M1 14.0366C1 20.1181 5.92487 25.0481 12 25.0481C18.0751 25.0481 23 20.1181 23 14.0366C23 7.95515 18.0751 3.02515 12 3.02515C5.92487 3.02515 1 7.95515 1 14.0366ZM20.8 14.0366C20.8 18.9018 16.8601 22.8458 12 22.8458C7.13989 22.8458 3.2 18.9018 3.2 14.0366C3.2 9.17144 7.13989 5.22744 12 5.22744C16.8601 5.22744 20.8 9.17144 20.8 14.0366Z" fill="#503291"/>
<mask id="mask0" mask-type="alpha" maskUnits="userSpaceOnUse" x="1" y="3" width="22" height="23">
<path fill-rule="evenodd" clip-rule="evenodd" d="M1 14.0366C1 20.1181 5.92487 25.0481 12 25.0481C18.0751 25.0481 23 20.1181 23 14.0366C23 7.95515 18.0751 3.02515 12 3.02515C5.92487 3.02515 1 7.95515 1 14.0366ZM20.8 14.0366C20.8 18.9018 16.8601 22.8458 12 22.8458C7.13989 22.8458 3.2 18.9018 3.2 14.0366C3.2 9.17144 7.13989 5.22744 12 5.22744C16.8601 5.22744 20.8 9.17144 20.8 14.0366Z" fill="white"/>
</mask>
<g mask="url(#mask0)">
</g>
<mask id="path-4-outside-1" maskUnits="userSpaceOnUse" x="12" y="0.0229492" width="13" height="13" fill="black">
<rect fill="white" x="12" y="0.0229492" width="13" height="13"/>
<path fill-rule="evenodd" clip-rule="evenodd" d="M19.5607 2.12481C19.5607 1.51627 19.0661 1.02295 18.4559 1.02295C17.8458 1.02295 17.3512 1.51627 17.3512 2.12481V5.1204H14.1047C13.4946 5.1204 13 5.61372 13 6.22227C13 6.83081 13.4946 7.32413 14.1047 7.32413H17.3512V10.3199C17.3512 10.9285 17.8458 11.4218 18.4559 11.4218C19.0661 11.4218 19.5607 10.9285 19.5607 10.3199V7.32413H22.8044C23.4145 7.32413 23.9091 6.83081 23.9091 6.22227C23.9091 5.61372 23.4145 5.1204 22.8044 5.1204H19.5607V2.12481Z"/>
</mask>
<path fill-rule="evenodd" clip-rule="evenodd" d="M19.5607 2.12481C19.5607 1.51627 19.0661 1.02295 18.4559 1.02295C17.8458 1.02295 17.3512 1.51627 17.3512 2.12481V5.1204H14.1047C13.4946 5.1204 13 5.61372 13 6.22227C13 6.83081 13.4946 7.32413 14.1047 7.32413H17.3512V10.3199C17.3512 10.9285 17.8458 11.4218 18.4559 11.4218C19.0661 11.4218 19.5607 10.9285 19.5607 10.3199V7.32413H22.8044C23.4145 7.32413 23.9091 6.83081 23.9091 6.22227C23.9091 5.61372 23.4145 5.1204 22.8044 5.1204H19.5607V2.12481Z" fill="#FFC832"/>
<path d="M17.3512 5.1204V6.1204C17.9035 6.1204 18.3512 5.67269 18.3512 5.1204H17.3512ZM17.3512 7.32413H18.3512C18.3512 6.77185 17.9035 6.32413 17.3512 6.32413V7.32413ZM19.5607 7.32413V6.32413C19.0084 6.32413 18.5607 6.77185 18.5607 7.32413H19.5607ZM19.5607 5.1204H18.5607C18.5607 5.67269 19.0084 6.1204 19.5607 6.1204V5.1204ZM18.4559 2.02295C18.5162 2.02295 18.5607 2.07099 18.5607 2.12481H20.5607C20.5607 0.961547 19.6159 0.0229492 18.4559 0.0229492V2.02295ZM18.3512 2.12481C18.3512 2.07099 18.3957 2.02295 18.4559 2.02295V0.0229492C17.296 0.0229492 16.3512 0.961547 16.3512 2.12481H18.3512ZM18.3512 5.1204V2.12481H16.3512V5.1204H18.3512ZM14.1047 6.1204H17.3512V4.1204H14.1047V6.1204ZM14 6.22227C14 6.16845 14.0444 6.1204 14.1047 6.1204V4.1204C12.9448 4.1204 12 5.059 12 6.22227H14ZM14.1047 6.32413C14.0444 6.32413 14 6.27609 14 6.22227H12C12 7.38553 12.9448 8.32413 14.1047 8.32413V6.32413ZM17.3512 6.32413H14.1047V8.32413H17.3512V6.32413ZM18.3512 10.3199V7.32413H16.3512V10.3199H18.3512ZM18.4559 10.4218C18.3957 10.4218 18.3512 10.3737 18.3512 10.3199H16.3512C16.3512 11.4832 17.296 12.4218 18.4559 12.4218V10.4218ZM18.5607 10.3199C18.5607 10.3737 18.5162 10.4218 18.4559 10.4218V12.4218C19.6159 12.4218 20.5607 11.4832 20.5607 10.3199H18.5607ZM18.5607 7.32413V10.3199H20.5607V7.32413H18.5607ZM22.8044 6.32413H19.5607V8.32413H22.8044V6.32413ZM22.9091 6.22227C22.9091 6.27609 22.8646 6.32413 22.8044 6.32413V8.32413C23.9643 8.32413 24.9091 7.38553 24.9091 6.22227H22.9091ZM22.8044 6.1204C22.8646 6.1204 22.9091 6.16845 22.9091 6.22227H24.9091C24.9091 5.059 23.9643 4.1204 22.8044 4.1204V6.1204ZM19.5607 6.1204H22.8044V4.1204H19.5607V6.1204ZM18.5607 2.12481V5.1204H20.5607V2.12481H18.5607Z" fill="white" mask="url(#path-4-outside-1)"/>
</svg>
