<svg width="24" height="24" viewBox="0 0 24 24" fill="none" xmlns="http://www.w3.org/2000/svg">
<path d="M15.4667 18.7422H8.53329C8.0915 18.7422 7.73328 19.1004 7.73328 19.5422C7.73328 19.984 8.09145 20.3422 8.53329 20.3422H15.4666C15.9084 20.3422 16.2666 19.984 16.2666 19.5422C16.2666 19.1004 15.9085 18.7422 15.4667 18.7422Z" fill="white"/>
<path d="M15.4667 16.2192H8.53329C8.0915 16.2192 7.73328 16.5774 7.73328 17.0193C7.73328 17.4611 8.09145 17.8193 8.53329 17.8193H15.4666C15.9084 17.8193 16.2666 17.4611 16.2666 17.0193C16.2666 16.5774 15.9085 16.2192 15.4667 16.2192Z" fill="white"/>
<path d="M22.1333 6.27653H19.5879V1.64645C19.5879 1.20465 19.2297 0.846436 18.7879 0.846436H5.21212C4.77033 0.846436 4.41211 1.20461 4.41211 1.64645V6.27653H1.86666C0.837375 6.27653 0 7.11395 0 8.14323V16.1918C0 17.221 0.837375 18.0584 1.86666 18.0584H4.41225V22.3528C4.41225 22.7946 4.77042 23.1528 5.21227 23.1528H18.7877C19.2295 23.1528 19.5877 22.7947 19.5877 22.3528V18.0584H22.1333C23.1626 18.0584 24 17.221 24 16.1918V8.14323C24 7.114 23.1626 6.27653 22.1333 6.27653ZM6.01209 2.44647H17.9879V6.27653H6.01209V2.44647ZM17.9877 21.5528H6.01228C6.01228 21.3965 6.01228 15.2011 6.01228 15.0077H17.9878C17.9877 15.206 17.9877 21.4025 17.9877 21.5528ZM18.7879 10.9741H16.7515C16.3097 10.9741 15.9515 10.6159 15.9515 10.1741C15.9515 9.73225 16.3096 9.37408 16.7515 9.37408H18.7879C19.2297 9.37408 19.5879 9.73225 19.5879 10.1741C19.5879 10.6159 19.2297 10.9741 18.7879 10.9741Z" fill="white"/>
</svg>
