<svg width="24" height="24" viewBox="0 0 24 24" fill="none" xmlns="http://www.w3.org/2000/svg">
<path fill-rule="evenodd" clip-rule="evenodd" d="M12 16.4035C9.5687 16.4035 7.59757 14.4323 7.59757 12C7.59757 9.5687 9.5687 7.59861 12 7.59861C14.4323 7.59861 16.4035 9.5687 16.4035 12C16.4035 14.4323 14.4323 16.4035 12 16.4035ZM23.1652 10.2219L21.4936 9.6647C20.9603 9.4873 20.5336 9.08557 20.3186 8.56696C20.3165 8.56174 20.3144 8.55548 20.3123 8.5513C20.0953 8.03061 20.112 7.44417 20.3645 6.94017L21.1523 5.36348C21.3871 4.89287 21.2953 4.32522 20.9238 3.9527L20.0473 3.07722C19.6748 2.70574 19.1082 2.61287 18.6376 2.8487L17.0609 3.63652C16.5569 3.88904 15.9704 3.9047 15.4497 3.68765C15.4445 3.68557 15.4393 3.68452 15.4341 3.68243C14.9144 3.46748 14.5137 3.03965 14.3353 2.50852L13.7791 0.835826C13.6122 0.337043 13.1457 0 12.6198 0H11.3802C10.8543 0 10.3878 0.337043 10.2219 0.835826L9.6647 2.50852C9.48626 3.03965 9.08557 3.46748 8.56591 3.68243C8.56174 3.68452 8.55548 3.68557 8.55026 3.68765C8.03061 3.9047 7.44313 3.88904 6.93913 3.63652L5.36243 2.8487C4.89287 2.61287 4.32522 2.70574 3.9527 3.07722L3.07617 3.9527C2.7047 4.32522 2.61287 4.89287 2.84765 5.36348L3.63548 6.94017C3.888 7.44417 3.9047 8.03061 3.68765 8.5513C3.68557 8.55548 3.68348 8.56174 3.68139 8.56696C3.46643 9.08557 3.03965 9.4873 2.50748 9.6647L0.834783 10.2219C0.336 10.3878 0 10.8553 0 11.3812V12.6198C0 13.1457 0.336 13.6122 0.834783 13.7781L2.50748 14.3363C3.03965 14.5137 3.46643 14.9155 3.68139 15.4341C3.68348 15.4393 3.68557 15.4445 3.68765 15.4497C3.9047 15.9704 3.888 16.5569 3.63548 17.0619L2.84765 18.6386C2.61287 19.1082 2.7047 19.6758 3.07617 20.0473L3.9527 20.9238C4.32522 21.2953 4.89287 21.3871 5.36243 21.1534L6.93913 20.3645C7.44313 20.113 8.02956 20.0963 8.55026 20.3123C8.55548 20.3144 8.56174 20.3176 8.56591 20.3197C9.08557 20.5346 9.48626 20.9603 9.6647 21.4936L10.2219 23.1652C10.3878 23.664 10.8543 24 11.3802 24H12.6198C13.1457 24 13.6122 23.664 13.7791 23.1652L14.3353 21.4936C14.5137 20.9603 14.9144 20.5346 15.4341 20.3197C15.4393 20.3176 15.4445 20.3144 15.4497 20.3123C15.9704 20.0963 16.5569 20.113 17.0609 20.3645L18.6376 21.1534C19.1082 21.3871 19.6748 21.2953 20.0473 20.9238L20.9238 20.0473C21.2953 19.6758 21.3871 19.1082 21.1523 18.6386L20.3645 17.0619C20.112 16.5569 20.0953 15.9704 20.3123 15.4497C20.3144 15.4445 20.3165 15.4393 20.3186 15.4341C20.5336 14.9155 20.9603 14.5137 21.4936 14.3363L23.1652 13.7781C23.664 13.6122 24 13.1457 24 12.6198V11.3812C24 10.8553 23.664 10.3878 23.1652 10.2219Z" fill="#7D7D89"/>
</svg>
