<svg width="211" height="157" viewBox="0 0 211 157" fill="none" xmlns="http://www.w3.org/2000/svg">
<path d="M209.991 105.043L115.407 156.348L1.92749 120.042L96.705 70.3521L209.991 105.043Z" fill="#B7CEE1"/>
<path d="M69.15 98.3787L70.716 117.038C70.7318 117.228 70.8557 117.391 71.034 117.458C71.1878 117.516 71.3603 117.493 71.4937 117.397C71.6271 117.301 71.704 117.145 71.6985 116.981L71.109 98.1328" fill="#85AECF"/>
<path d="M102.951 109.332L104.517 127.991C104.533 128.181 104.657 128.344 104.835 128.411C104.989 128.469 105.161 128.446 105.295 128.35C105.428 128.254 105.505 128.098 105.5 127.934L104.91 109.087" fill="#78A6CA"/>
<path d="M134.265 91.4939L135.831 110.153C135.847 110.343 135.971 110.506 136.149 110.573C136.303 110.631 136.475 110.608 136.609 110.512C136.742 110.416 136.819 110.26 136.814 110.096L136.224 91.248" fill="#85AECF"/>
<path d="M96.705 70.3519L1.92751 120.042L0.213013 51.5037L96.705 0.970703V70.3519Z" fill="#E0EAF2"/>
<path d="M209.991 105.043L96.705 70.3519V0.970703L209.991 35.6613V105.043Z" fill="#CDDCEA"/>
<path d="M184.32 63.9261L184.319 97.1835L171.366 93.2135L171.279 59.8872L184.32 63.9261Z" fill="#9DBDD8"/>
<path d="M62.4315 40.4931L62.5125 70.2243L79.0245 61.0011L78.9435 31.8936L62.4315 40.4931Z" fill="#F3F7F9"/>
<rect x="70.0695" y="33.4214" width="1.101" height="37.4942" fill="#E0EAF2"/>
<path d="M57.81 54.5307L57.318 53.5457L84.5955 39.8638L85.0875 40.8473L57.81 54.5307Z" fill="#E0EAF2"/>
<path d="M62.442 45.9819C62.442 45.9819 62.1795 40.6506 66.192 38.5292C70.2045 36.4078 63.7095 32.9551 63.7095 32.9551L57.3405 44.9804L62.442 45.9819Z" fill="#E0EAF2"/>
<path d="M74.8155 34.0495C76.0155 33.3419 78.8355 33.5998 78.954 37.1334L83.1705 28.8277L73.734 26.8232C73.734 26.8232 73.101 35.0555 74.8155 34.0495Z" fill="#E0EAF2"/>
<path d="M24.1379 61.0776L24.2189 90.8088L40.7309 81.5855L40.6499 52.478L24.1379 61.0776Z" fill="#F3F7F9"/>
<rect x="31.7745" y="54.0059" width="1.101" height="37.4942" fill="#E0EAF2"/>
<path d="M19.5149 75.1152L19.0229 74.1302L46.3004 60.4482L46.7924 61.4332L19.5149 75.1152Z" fill="#E0EAF2"/>
<path d="M24.15 66.5663C24.15 66.5663 23.8875 61.2351 27.9 59.1137C31.9125 56.9923 25.4175 53.5396 25.4175 53.5396L19.05 65.5649L24.15 66.5663Z" fill="#E0EAF2"/>
<path d="M36.522 54.634C37.722 53.9264 40.542 54.1842 40.6605 57.7179L44.877 49.4122L35.4405 47.4077C35.4405 47.4077 34.8 55.64 36.522 54.634Z" fill="#E0EAF2"/>
<path d="M106.502 82.4688L64.3785 100.337L64.3065 101.095L104.105 112.354L143.166 91.3037L143.238 90.3007L106.502 82.4688Z" fill="#6499C4"/>
<path d="M106.746 78.3066L64.3785 100.336L104.052 111.107L143.238 90.3005L106.746 78.3066Z" fill="#CDDCEA"/>
<path d="M62.2965 71.3308L62.256 72.1869L64.542 73.3698L82.0935 63.5798L82.0725 62.8857L79.1955 61.8452L62.2965 71.3308Z" fill="#B7CEE1"/>
<path d="M62.2965 71.3308L64.5555 72.5782L82.0725 62.8857L79.1955 61.8452L62.2965 71.3308Z" fill="#E5EEF4"/>
<path d="M24.459 92.0144L24.4185 92.872L26.703 94.0549L44.2545 84.2634L44.235 83.5693L41.3565 82.5288L24.459 92.0144Z" fill="#B7CEE1"/>
<path d="M24.459 92.0144L26.718 93.2633L44.235 83.5693L41.3565 82.5288L24.459 92.0144Z" fill="#E5EEF4"/>
<path d="M171.279 59.8872L173.472 60.6458L173.729 91.1581L171.366 93.2135L171.279 59.8872Z" fill="#78A6CA"/>
<path d="M96.705 0.970703L83.481 77.2049L96.705 70.3519V0.970703Z" fill="#D5E2ED"/>
<path d="M76.5811 33.7588C76.5811 33.7588 77.2756 34.6358 77.3161 36.6958C77.3581 38.8067 77.3911 43.4678 77.3911 43.4678L78.9631 42.6822L78.9121 36.8022C78.9121 36.8022 78.9481 34.4514 76.5811 33.7588Z" fill="#CDDCEA"/>
<path d="M77.412 44.7676L77.5845 61.5604L79.014 61.7538L78.963 43.916L77.412 44.7676Z" fill="#CDDCEA"/>
<path d="M39.21 65.328L39.276 82.5901L40.731 81.5857L40.587 64.502L39.21 65.328Z" fill="#CDDCEA"/>
<path d="M38.3774 54.3193C38.3774 54.3193 39.0719 55.1964 39.1124 57.2563C39.1544 59.3672 38.9894 64.1108 38.9894 64.1108L40.5869 63.2113L40.6229 57.3523C40.6229 57.3523 40.7444 55.012 38.3774 54.3193Z" fill="#CDDCEA"/>
<path opacity="0.4" d="M71.6025 116.248L88.1445 114.254L88.869 114.167L89.604 115.39L71.1135 117.35L71.6025 116.248Z" fill="#78A6CA"/>
<path opacity="0.4" d="M105.305 127.236L121.847 125.242L122.571 125.155L123.305 126.378L104.816 128.336L105.305 127.236Z" fill="#78A6CA"/>
<path opacity="0.4" d="M136.624 109.393L153.166 107.401L153.891 107.314L154.626 108.537L136.135 110.495L136.624 109.393Z" fill="#78A6CA"/>
<path opacity="0.4" d="M87.624 83.2439C90.5657 83.2439 92.9505 82.6411 92.9505 81.8976C92.9505 81.154 90.5657 80.5513 87.624 80.5513C84.6822 80.5513 82.2975 81.154 82.2975 81.8976C82.2975 82.6411 84.6822 83.2439 87.624 83.2439Z" fill="#78A6CA"/>
<path d="M90.9135 60.5858C88.2015 61.4374 86.9445 58.6713 87.5565 57.5169C88.1445 56.406 89.484 55.8678 88.6365 54.1856C86.787 50.502 90.6825 50.7119 89.8365 49.3971C88.6785 47.598 85.143 49.9338 85.737 46.9983C86.052 45.4406 88.0185 43.763 87.618 42.6236C86.6355 39.829 84.2445 39.8005 83.0565 40.0314C81.147 40.4032 77.4855 41.5306 80.61 47.7569L80.634 47.8004C80.664 47.8604 80.6985 47.9233 80.73 47.9848C81.1275 48.7659 82.23 51.2906 79.275 50.3221C77.1285 49.6175 77.139 51.9862 78.249 52.7209C79.359 53.4555 81.216 52.499 81.339 56.6279C81.339 56.6279 81.324 57.7988 80.0055 57.6144C78.687 57.4299 78.7455 60.178 79.8555 60.6713C80.9655 61.1645 81.966 61.121 81.1335 61.9486C79.5225 63.4598 77.4345 65.8466 79.662 67.5887C82.4985 69.8076 81.942 68.6981 83.4525 71.0369C84.963 73.3757 85.59 74.1988 87.5625 70.5017C89.535 66.8046 90.9585 67.5422 92.562 65.0775C94.1655 62.6128 93.5175 59.7687 90.9135 60.5858Z" fill="#B7CEE1"/>
<path d="M81.771 75.397L82.05 81.3369C82.0715 81.8106 82.3427 82.2374 82.7625 82.4584C84.5551 83.4242 86.7265 83.3637 88.4625 82.2994C88.8009 82.1003 89.0158 81.744 89.034 81.3519L89.3175 75.433L81.771 75.397Z" fill="white"/>
<path d="M85.542 76.7852C87.6255 76.7852 89.3145 76.1797 89.3145 75.4329C89.3145 74.686 87.6255 74.0806 85.542 74.0806C83.4585 74.0806 81.7695 74.686 81.7695 75.4329C81.7695 76.1797 83.4585 76.7852 85.542 76.7852Z" fill="#85AECF"/>
<path d="M85.152 68.6908L85.0995 67.1826L85.152 68.6908Z" fill="white"/>
<path d="M85.2 51.4287L84.8595 75.106C84.8595 75.2274 84.9085 75.3437 84.9955 75.4284C85.0825 75.5131 85.2001 75.559 85.3215 75.5558C85.5612 75.5438 85.7493 75.3459 85.749 75.106L85.599 63.8618L85.5705 51.5397L85.2 51.4287Z" fill="white"/>
<path d="M88.3425 62.3818L88.377 62.5542L85.464 64.3218L85.4985 63.8376" fill="white"/>
<path d="M82.7205 56.1421L82.689 56.316L85.308 58.0836L85.2765 57.5978" fill="white"/>
<path opacity="0.8" d="M122.151 42.384L119.032 41.1606V44.2026C119.032 44.2026 119.071 44.9912 117.469 45.2445L120.366 46.2475C121.716 46.1156 122.119 44.5399 122.154 44.2011L122.151 42.384Z" fill="white"/>
<path opacity="0.8" d="M125.64 49.9114L122.521 48.688V51.7299C122.521 51.7299 122.56 52.5185 120.958 52.7719L123.856 53.7794C125.207 53.6474 125.61 52.0717 125.645 51.7329L125.64 49.9114Z" fill="white"/>
<path opacity="0.8" d="M132.071 47.7077L128.952 46.4844V49.5263C128.952 49.5263 128.991 50.3149 127.389 50.5683L130.287 51.5757C131.637 51.4438 132.041 49.8681 132.075 49.5293L132.071 47.7077Z" fill="white"/>
<path opacity="0.8" d="M144.01 46.4226L140.892 45.1978V48.2412C140.892 48.2412 140.931 49.0298 139.329 49.2831L142.225 50.2951C143.575 50.1632 143.979 48.5875 144.013 48.2487L144.01 46.4226Z" fill="white"/>
<path opacity="0.8" d="M148.15 57.1018L145.032 55.8784V58.9204C145.032 58.9204 145.071 59.7089 143.469 59.9623L146.367 60.9698C147.717 60.8379 148.12 59.2622 148.155 58.9233L148.15 57.1018Z" fill="white"/>
<path opacity="0.8" d="M137.313 62.61L134.194 61.3896V64.4316C134.194 64.4316 134.233 65.2202 132.631 65.4735L135.529 66.481C136.879 66.3491 137.283 64.7734 137.317 64.4346L137.313 62.61Z" fill="white"/>
<path opacity="0.8" d="M112.8 48.2159L109.686 46.9971V50.039C109.686 50.039 109.725 50.8276 108.123 51.081L111.021 52.0885C112.371 51.9565 112.775 50.3808 112.809 50.042L112.8 48.2159Z" fill="white"/>
<path opacity="0.8" d="M114.762 60.2111L111.645 58.9907V62.0327C111.645 62.0327 111.684 62.8212 110.082 63.0746L112.98 64.0821C114.33 63.9502 114.734 62.3745 114.768 62.0357L114.762 60.2111Z" fill="white"/>
<path opacity="0.8" d="M147.193 36.6311L144.075 35.4077V38.4511C144.075 38.4511 144.114 39.2397 142.512 39.4931L145.41 40.5006C146.76 40.3687 147.163 38.793 147.198 38.4541L147.193 36.6311Z" fill="white"/>
<path opacity="0.8" d="M140.498 52.8186L137.379 51.5952V54.6431C137.379 54.6431 137.418 55.4317 135.816 55.6851L138.714 56.6926C140.064 56.5607 140.468 54.985 140.502 54.6461L140.498 52.8186Z" fill="white"/>
<rect width="0.244388" height="2.43435" transform="matrix(0.343981 -0.938977 0.939092 0.343667 109.978 48.1567)" fill="#CDDCEA"/>
<rect width="0.244392" height="2.27837" transform="matrix(0.34053 -0.940233 0.940343 0.340229 109.98 48.769)" fill="#CDDCEA"/>
<rect width="0.244388" height="1.6724" transform="matrix(0.341848 -0.939755 0.939869 0.341536 109.906 49.3086)" fill="#CDDCEA"/>
<rect width="0.24439" height="2.43436" transform="matrix(0.34398 -0.938977 0.939091 0.343668 122.887 49.5742)" fill="#CDDCEA"/>
<rect width="0.244388" height="2.43434" transform="matrix(0.34398 -0.938977 0.939091 0.343667 122.826 50.1245)" fill="#CDDCEA"/>
<rect width="0.24439" height="2.43436" transform="matrix(0.34398 -0.938977 0.939091 0.343668 134.53 62.5068)" fill="#CDDCEA"/>
<rect width="0.244388" height="2.43435" transform="matrix(0.343982 -0.938976 0.939092 0.343666 134.5 63.1489)" fill="#CDDCEA"/>
<rect width="0.24439" height="2.43436" transform="matrix(0.34398 -0.938977 0.939091 0.343668 141.267 46.1885)" fill="#CDDCEA"/>
<rect width="0.24439" height="2.43436" transform="matrix(0.34398 -0.938977 0.939091 0.343668 141.235 46.8301)" fill="#CDDCEA"/>
<path d="M124.386 102.567C124.386 102.567 126.127 104.843 125.136 114.623C125.136 114.623 126.439 118.386 125.491 121.621L124.014 121.817L121.81 108.728C121.81 108.728 121.143 112.207 121.105 113.14C121.011 115.539 120.981 118.976 120.18 120.365L118.38 120.017C118.38 120.017 117.987 113.687 118.338 110.722C118.609 108.422 118.107 104.125 118.8 103.404C119.493 102.683 124.386 102.567 124.386 102.567Z" fill="#2771B0"/>
<path d="M124.478 102.768C124.478 102.768 126.428 104.867 125.183 114.612C125.183 114.612 126.462 118.597 125.427 121.808L124.055 121.826L121.65 108.78C121.65 108.78 123.621 107.979 124.365 106.483C124.8 105.608 124.478 102.768 124.478 102.768Z" fill="#226393"/>
<path d="M111.432 93.383C111.432 93.383 110.139 92.5629 109.767 92.1926C109.581 92.0082 109.669 91.7159 109.749 91.4745C109.828 91.2331 110.472 90.5915 110.518 90.8598C110.589 91.274 110.842 91.6348 111.207 91.8433C111.207 91.8433 111.357 90.8223 111.615 91.6574C111.804 92.2886 111.967 92.7728 111.967 92.7728C111.967 92.7728 111.934 93.6934 111.432 93.383Z" fill="white"/>
<path fill-rule="evenodd" clip-rule="evenodd" d="M124.461 94.932C124.724 95.5662 124.503 96.785 124.296 97.1718C124.23 98.9544 124.139 102.275 124.377 102.568C124.718 102.969 121.374 103.945 118.788 103.404C119.016 103.182 119.073 101.016 118.13 100.166C118.13 100.166 116.841 99.9589 117.68 97.8765C117.746 97.746 117.765 97.5964 117.732 97.4537C117.681 97.0838 117.376 96.8013 117.003 96.7791C116.97 96.7776 116.906 96.7852 116.827 96.7945C116.669 96.8133 116.453 96.839 116.313 96.812C114.198 96.3998 113.562 95.8617 110.655 93.4026L110.654 93.4013L111.87 92.0205C115.004 94.6711 115.719 95.016 117.9 94.7086C118.174 94.6595 118.445 94.5934 118.712 94.5107L118.832 94.4807C119.291 94.3668 119.802 93.968 120.203 93.5917C119.619 93.0865 119.298 92.6067 119.427 92.2919L120.327 92.5048C122.661 93.061 124.011 93.8556 124.461 94.932Z" fill="#2C4356"/>
<path fill-rule="evenodd" clip-rule="evenodd" d="M121.493 92.6681C121.219 92.6946 120.944 92.6805 120.675 92.6262C119.975 92.4933 119.357 92.0854 118.96 91.4937C118.562 90.902 118.419 90.1759 118.562 89.4778C118.789 88.4319 119.613 87.6185 120.662 87.4028C121.626 87.134 122.498 87.127 123.278 87.3818C124.5 87.7761 125.178 89.4673 125.25 89.8046C125.367 90.3488 124.734 91.1434 124.635 91.5362C124.536 91.929 124.485 92.4358 123.521 93.0624C122.882 93.4772 122.443 93.5807 122.205 93.3728L121.493 92.6681Z" fill="#1A5784"/>
<path fill-rule="evenodd" clip-rule="evenodd" d="M119.377 89.1987C119.442 89.465 119.564 89.7141 119.734 89.9289C119.868 90.0788 120.705 90.4566 121.312 90.7579C121.266 91.2077 121.194 91.635 121.194 91.635C121.365 91.7849 121.462 91.8464 121.536 91.7354L121.777 90.9573L121.936 90.9888L122.236 91.0008C122.697 91.0938 122.782 91.4341 122.701 91.8164C122.62 92.1987 122.401 92.3621 122.179 92.3261L121.5 93.596C121.209 94.0747 120.702 94.2096 119.98 94.0007C118.897 93.6874 118.683 92.9513 118.68 92.4895C118.679 92.1797 118.911 91.0828 119.377 89.1987Z" fill="white"/>
<path d="M123.3 93.1987C123.3 93.1987 122.127 93.7459 121.897 94.6499C121.897 94.6499 120.744 93.1627 122.173 92.3291" fill="#1A5784"/>
<path d="M119.634 89.1255C119.634 89.1255 119.589 91.0475 120.412 91.6382C121.06 92.1015 121.792 91.6637 121.792 91.6637C122.068 91.2274 122.004 90.1809 122.004 90.1809" fill="#1A5784"/>
<path d="M122.466 123.209C122.466 123.209 124.18 122.99 124.026 121.888C123.828 120.486 123.543 120.297 123.498 119.684L125.932 119.594C125.932 119.594 125.577 123.182 125.43 123.612L124.98 123.653L124.969 123.519C124.958 123.43 124.879 123.366 124.789 123.373C124.7 123.379 124.631 123.454 124.632 123.543L124.642 123.683C123.694 123.768 122.212 123.894 122.197 123.848C122.182 123.801 121.809 123.182 122.466 123.209Z" fill="#172B4D"/>
<path d="M116.687 123.308C116.687 123.308 118.461 123.294 118.586 122.141C118.736 120.737 118.182 120.065 118.215 119.425L120.615 119.444C120.615 119.444 120.129 123.68 119.909 124.105L119.459 124.093L119.472 124.02C119.486 123.929 119.425 123.844 119.334 123.83C119.243 123.814 119.156 123.875 119.139 123.966L119.118 124.084C118.068 124.051 116.331 123.991 116.321 123.934C116.31 123.878 115.965 123.191 116.687 123.308Z" fill="#172B4D"/>
<path d="M95.3626 109.545C95.3626 109.545 97.1041 111.821 96.1126 121.6C96.1126 121.6 97.4161 125.363 96.4681 128.599L94.9906 128.795L92.7886 115.707C92.7886 115.707 92.1211 119.186 92.0836 120.119C91.9891 122.518 92.0296 125.976 91.2271 127.365L89.7271 126.915C89.7271 126.915 88.9606 120.665 89.3101 117.699C89.5816 115.399 89.0791 111.103 89.7721 110.381C90.4651 109.66 95.3626 109.545 95.3626 109.545Z" fill="#2771B0"/>
<path d="M95.454 109.747C95.454 109.747 97.404 111.846 96.159 121.591C96.159 121.591 97.4385 125.576 96.4035 128.787L95.031 128.805L92.6205 115.762C92.6205 115.762 94.5915 114.961 95.3355 113.465C95.7705 112.584 95.454 109.747 95.454 109.747Z" fill="#226393"/>
<path d="M92.025 112.411C92.025 112.411 92.0385 113.942 91.9305 114.455C91.8765 114.711 91.5825 114.797 91.3305 114.86C91.0785 114.922 90.195 114.732 90.396 114.548C90.7047 114.263 90.8698 113.855 90.846 113.435C90.846 113.435 89.904 113.858 90.468 113.194C90.8955 112.692 91.218 112.294 91.218 112.294C91.218 112.294 92.013 111.822 92.025 112.411Z" fill="white"/>
<path fill-rule="evenodd" clip-rule="evenodd" d="M88.827 104.426C88.827 104.426 90.012 103.044 90.327 102.477C90.5055 102.157 90.945 101.145 90.9405 101.142L90.941 101.141C91.0534 100.973 91.1687 100.801 91.278 100.651C90.6315 100.116 90.267 99.5989 90.4035 99.2661L91.3035 99.479C93.6375 100.035 94.9875 100.83 95.4375 101.906C95.7 102.54 95.4795 103.759 95.2725 104.146C95.2125 105.93 95.115 109.251 95.3625 109.543C95.703 109.945 92.3595 110.921 89.7735 110.38C90.0015 110.158 90.2085 107.542 89.265 106.692C89.265 106.692 87.477 105.926 88.827 104.426Z" fill="#2C4356"/>
<path fill-rule="evenodd" clip-rule="evenodd" d="M92.4675 99.6452C92.1944 99.6717 91.9189 99.6575 91.65 99.6032C90.9496 99.4703 90.3317 99.0625 89.9345 98.4708C89.5373 97.8791 89.3939 97.153 89.5365 96.4548C89.7643 95.4089 90.5875 94.5956 91.6365 94.3799C92.6005 94.111 93.4725 94.104 94.2525 94.3589C95.4735 94.7577 96.1545 96.4443 96.2265 96.7816C96.3435 97.3259 95.7105 98.1205 95.6115 98.5133C95.5125 98.9061 95.4615 99.4128 94.497 100.039C93.858 100.454 93.4195 100.558 93.1815 100.35L92.4675 99.6452Z" fill="#1A5784"/>
<path fill-rule="evenodd" clip-rule="evenodd" d="M90.3541 96.1719C90.4188 96.4382 90.5406 96.6873 90.7111 96.902C90.8446 97.0519 91.6816 97.4297 92.2891 97.7311C92.2426 98.1808 92.1706 98.6081 92.1706 98.6081C92.3416 98.758 92.4391 98.8195 92.5126 98.7086L92.7541 97.9305L92.9131 97.962L93.2131 97.9739C93.6736 98.0669 93.7591 98.4072 93.6781 98.7895C93.5971 99.1718 93.3781 99.3352 93.1561 99.2993L92.4841 100.568C92.1931 101.046 91.6866 101.181 90.9646 100.972C89.8816 100.659 89.6671 99.9229 89.6641 99.4612C89.6581 99.1553 89.8881 98.0589 90.3541 96.1719Z" fill="white"/>
<path d="M94.275 100.175C94.275 100.175 93.102 100.722 92.8725 101.626C92.8725 101.626 91.719 100.139 93.1485 99.3052" fill="#1A5784"/>
<path d="M90.6105 96.1011C90.6105 96.1011 90.5655 98.0231 91.389 98.6138C92.037 99.0771 92.769 98.6393 92.769 98.6393C93.045 98.203 92.9805 97.1565 92.9805 97.1565" fill="#1A5784"/>
<path d="M93.4425 130.186C93.4425 130.186 95.157 129.967 95.0025 128.865C94.8045 127.463 94.5195 127.274 94.4745 126.661L96.909 126.571C96.909 126.571 96.5535 130.159 96.4065 130.589L95.9565 130.63L95.946 130.496C95.9342 130.408 95.8553 130.343 95.766 130.35C95.6767 130.356 95.6077 130.431 95.6085 130.52L95.619 130.66C94.671 130.745 93.189 130.871 93.174 130.825C93.159 130.778 92.784 130.159 93.4425 130.186Z" fill="#172B4D"/>
<path d="M87.813 130.241C87.813 130.241 89.5875 130.228 89.712 129.075C89.862 127.67 89.3085 126.999 89.3415 126.358L91.7415 126.378C91.7415 126.378 91.2555 130.613 91.035 131.039L90.585 131.027L90.5985 130.954C90.6129 130.863 90.5512 130.778 90.4605 130.763C90.3691 130.748 90.2823 130.808 90.2655 130.9L90.2445 131.018C89.1945 130.985 87.4575 130.925 87.447 130.868C87.4365 130.811 87.0915 130.13 87.813 130.241Z" fill="#172B4D"/>
<path d="M38.769 79.4792C38.769 79.4792 37.1775 79.3563 37.545 82.7775C37.9125 86.1988 38.7 87.3936 38.7 90.3246C38.7 93.2556 56.2725 75.6787 56.2725 75.6787L55.17 71.7627L38.769 79.4792Z" fill="#D8E4EE"/>
<path opacity="0.4" d="M39.0135 110.729L44.442 113.258L48.528 120.317L50.733 119.123L46.299 113.074L61.0185 115.084L62.8545 113.984L47.463 111.872L40.6875 109.912" fill="#78A6CA"/>
<path d="M37.4055 81.5675C37.6425 81.8554 38.8905 80.4581 39.267 80.9678L55.983 73.0729C55.983 73.0729 55.2975 70.917 53.4615 71.6517C51.7125 72.3518 37.323 77.749 37.344 80.0818C37.35 80.7564 37.3245 81.4686 37.4055 81.5675Z" fill="#F9FBFC"/>
<path d="M37.7895 84.4145C37.7895 84.4145 36.666 79.0637 38.2395 79.6544C39.2805 80.0442 39.3795 81.6814 39.3795 81.6814L37.7895 84.4145Z" fill="#D8E4EE"/>
<path d="M40.8495 80.3354C40.8495 80.3354 39.2385 80.8032 39.2145 81.4254C39.0765 85.1899 38.4645 98.5556 36.675 100.025C34.593 101.738 46.593 96.5976 46.593 96.5976L55.1745 73.9697L40.8495 80.3354Z" fill="#D8E4EE"/>
<path d="M47.1675 104.28L48.528 120.317L50.733 119.123L49.5555 107.951L57.087 104.28L61.0185 115.085L62.8545 113.984L57.6375 99.689L47.1675 104.28Z" fill="#95B8D5"/>
<path d="M42.753 89.1147L39.0135 110.729L40.6875 109.912L46.182 87.1567L42.753 89.1147Z" fill="#95B8D5"/>
<path d="M60.6871 99.0605L43.7896 107.873L39.2686 80.9618L55.9846 73.0669L60.6871 99.0605Z" fill="#F9FBFC"/>
<path d="M44.5755 105.443L44.556 105.317L40.7595 81.818L40.941 81.7896L44.7165 105.163L58.8075 97.7563L58.893 97.9182L44.5755 105.443Z" fill="#D8E4EE"/>
<path d="M36.165 121.176L34.272 121.326C34.1875 121.487 34.1182 121.656 34.065 121.831C34.0305 122.396 33.9315 122.402 34.887 122.447C34.8585 122.326 34.8375 122.182 34.8975 122.147C34.9575 122.113 35.022 122.297 35.0565 122.456L35.421 122.474C36.102 122.512 37.9395 122.662 38.4645 122.495C38.7975 122.393 36.4005 121.437 36.165 121.176Z" fill="#172B4D"/>
<path d="M33.063 121.543L31.1655 121.615C31.0738 121.773 30.997 121.939 30.936 122.111C30.876 122.675 30.7785 122.676 31.731 122.763C31.707 122.642 31.6935 122.496 31.755 122.463C31.8165 122.43 31.872 122.624 31.905 122.778L32.268 122.813C32.9475 122.88 34.776 123.113 35.307 122.963C35.64 122.876 33.288 121.808 33.063 121.543Z" fill="#172B4D"/>
<path d="M33.8534 91.0441C33.3149 91.0816 32.1389 90.8807 31.9589 89.1131C31.7789 87.3455 33.8114 87.41 35.1989 86.6124C36.5864 85.8148 35.2139 85.6304 35.5214 86.1717C35.8289 86.7129 36.4679 85.5615 36.3509 86.5195C36.2579 87.2691 36.9509 87.7368 36.4319 87.9977C36.1994 88.1132 36.2819 88.1012 36.0704 88.392C35.6339 89.0142 36.0599 89.7578 36.0599 89.7578C36.1379 90.1911 35.1119 90.6199 34.9214 90.3365C34.6214 89.8867 34.7219 89.3485 34.3784 89.4085C34.0904 89.4595 33.5924 90.0606 34.0784 90.356C35.1479 91.0097 33.8534 91.0441 33.8534 91.0441Z" fill="#172B4D"/>
<path fill-rule="evenodd" clip-rule="evenodd" d="M35.7 86.7476C35.6756 87.0088 35.592 87.2611 35.4555 87.4852C35.343 87.6351 34.5555 88.1358 33.9975 88.5181C34.0689 88.7641 34.2126 88.983 34.41 89.1463C34.44 89.3067 34.0365 89.3157 33.945 89.2243C33.854 89.0928 33.7461 88.9738 33.624 88.8705C33.5537 88.8504 33.4811 88.8393 33.408 88.8375L33.108 88.8974C32.658 89.0609 32.6265 89.3907 32.7675 89.731C32.9085 90.0713 33.3915 90.2617 33.825 90.1268L33.903 90.3487L34.248 91.1793C34.616 91.5791 35.147 91.6195 35.841 91.3007C36.882 90.8285 36.9825 90.1148 36.912 89.683C36.874 89.3952 36.47 88.4167 35.7 86.7476Z" fill="white"/>
<path d="M34.155 102.231C34.155 102.231 34.6215 119.93 34.836 120.919L36.7455 120.835C36.9165 120.287 37.2075 109.752 37.308 107.585C37.449 104.528 37.6425 103.031 37.4235 102.233L34.155 102.231Z" fill="#226393"/>
<path d="M31.5255 102.155C31.5255 102.155 31.7925 120.603 31.8255 121.464C31.842 121.824 34.2255 121.513 34.1505 121.155C34.0425 120.593 34.938 104.696 35.169 104.275C35.4 103.854 37.3515 103.401 37.29 102.158L31.5255 102.155Z" fill="#2771B0"/>
<path d="M36.0854 93.8523C36.0854 93.8523 36.5354 96.7608 36.8639 96.428C37.4309 95.8613 39.9989 96.0202 40.4639 95.8463C40.9289 95.6724 40.9139 93.8283 40.0724 93.6184C38.1254 93.1342 36.0854 93.8523 36.0854 93.8523Z" fill="#D5DDE8"/>
<path opacity="0.05" d="M36.0854 93.8525C36.0854 93.8525 38.4584 94.1089 39.4499 96.0309L37.7999 96.1149" fill="black"/>
<path d="M31.86 93.2495C31.86 93.2495 32.6575 95.4294 31 96.9211C30.4 97.4578 31.71 102.134 31.731 102.446C31.752 102.758 37.044 102.596 37.4805 102.561C37.917 102.527 37.764 94.134 37.569 93.7622C37.374 93.3904 36.3 92.7128 36.3 92.7128L34.932 93.6228L32.7 92.1431L31.86 93.2495Z" fill="#2C4356"/>
<path d="M33.4335 92.3815C33.7245 92.6378 34.0875 93.1146 34.692 93.317C35.2965 93.5194 36.003 92.8567 36.1485 92.5329C36.2205 92.374 36.564 92.7608 36.543 92.9332C36.477 93.4699 35.229 94.3035 34.6365 94.2285C33.8745 94.1326 32.283 92.4294 32.283 92.4294C32.2404 92.3988 32.2131 92.3513 32.2079 92.2991C32.2028 92.2469 32.2203 92.195 32.256 92.1566L32.4555 92.0516C32.6151 91.9613 32.8104 91.9613 32.97 92.0516C32.97 92.0516 33.3285 92.29 33.4335 92.3815Z" fill="#CDDCEA"/>
<path d="M39.6615 95.4893C39.6615 95.4893 39.78 95.8433 40.941 95.5583L39.6615 95.4893Z" fill="white"/>
<path d="M32.886 90.4748C32.3475 90.5123 32.007 90.154 31.827 88.3864C31.647 86.6188 32.844 86.8392 34.227 86.0431C35.61 85.247 35.841 84.8212 36.147 85.3624C36.453 85.9037 36.459 86.4119 36.2655 86.7912C36.06 87.1975 36.018 87.1045 35.7555 87.4389C35.5965 87.6413 35.3055 87.5318 35.097 87.8227C34.6605 88.4448 35.0865 89.1885 35.0865 89.1885C35.1645 89.6217 34.4865 89.9471 34.3365 89.6382C34.1115 89.169 33.774 88.7687 33.3975 88.8376C33.1095 88.8901 32.6115 89.4898 33.0975 89.7852C33.2985 89.9081 33.6645 89.9441 33.7875 90.0715C34.077 90.3564 32.886 90.4748 32.886 90.4748Z" fill="#172B4D"/>
<path d="M90.9915 109.515C90.9915 109.515 90.633 111.669 90.477 112.243C90.321 112.817 92.6865 112.596 92.6865 112.596L92.8935 109.626" fill="#2C4356"/>
<path fill-rule="evenodd" clip-rule="evenodd" d="M210.027 105.068L209.976 35.7378L114.6 86.5031L0.4065 51.7825L0 51.6581L1.8375 119.948V120.165L115.115 156.578L115.5 156.709L115.695 156.602L209.822 105.227L209.801 105.189L209.862 105.157L210.027 105.068ZM209.364 36.7558L209.415 104.705L115.745 155.79L114.936 87.0159L209.364 36.7558ZM0.634501 52.4917L2.445 119.71L115.081 155.922L114.881 137.652L114.281 87.0488L0.634501 52.4917Z" fill="white"/>
<path d="M45.2985 82.0144C45.6357 82.0144 45.909 81.5781 45.909 81.0399C45.909 80.5017 45.6357 80.0654 45.2985 80.0654C44.9613 80.0654 44.688 80.5017 44.688 81.0399C44.688 81.5781 44.9613 82.0144 45.2985 82.0144Z" fill="#95B8D5"/>
<path d="M47.079 82.3426C47.0281 82.1874 46.9639 82.0369 46.887 81.8928C46.683 81.548 46.0605 81.581 45.2805 81.8493C44.5005 82.1177 44.0595 82.6229 44.106 83.0217C44.1345 83.2646 44.196 83.5914 44.196 83.5914" fill="#95B8D5"/>
<path d="M46.767 87.6438C47.1042 87.6438 47.3775 87.2075 47.3775 86.6693C47.3775 86.1311 47.1042 85.6948 46.767 85.6948C46.4298 85.6948 46.1565 86.1311 46.1565 86.6693C46.1565 87.2075 46.4298 87.6438 46.767 87.6438Z" fill="#95B8D5"/>
<path d="M48.549 87.9739C48.4981 87.8187 48.4339 87.6683 48.357 87.5242C48.153 87.1793 47.5305 87.2123 46.7505 87.4807C45.9705 87.749 45.5295 88.2543 45.576 88.6531C45.6045 88.896 45.666 89.2228 45.666 89.2228" fill="#95B8D5"/>
<path d="M47.8845 93.4807C48.2217 93.4807 48.495 93.0444 48.495 92.5062C48.495 91.968 48.2217 91.5317 47.8845 91.5317C47.5474 91.5317 47.274 91.968 47.274 92.5062C47.274 93.0444 47.5474 93.4807 47.8845 93.4807Z" fill="#95B8D5"/>
<path d="M49.6649 93.8104C49.6141 93.6552 49.5498 93.5047 49.4729 93.3606C49.2689 93.0158 48.6464 93.0487 47.8664 93.3171C47.0864 93.5855 46.6454 94.0907 46.6919 94.4895C46.7204 94.7324 46.7819 95.0592 46.7819 95.0592" fill="#95B8D5"/>
<path d="M44.0701 90.7161C44.0701 90.7161 45.1516 91.5392 45.8206 90.866C46.4071 90.2798 46.4206 90.1689 46.6021 90.0744C46.7836 89.98 47.0026 89.5557 46.7521 89.5737C46.5016 89.5917 46.2481 89.8061 46.3021 89.6861C46.5391 89.1689 47.5351 88.3158 47.5171 87.7281C47.4991 87.1404 46.9366 88.1419 46.6591 88.1584C45.7681 88.2094 45.7006 88.2154 45.0631 88.8945C44.4256 89.5737 44.2741 90.1974 44.0341 90.4387" fill="white"/>
<path d="M40.764 95.6064C39.8355 95.7998 39.5175 95.5419 39.564 95.3275C39.6105 95.1131 40.083 94.9212 40.14 94.6948C40.2255 94.3545 40.4865 93.9002 40.4205 93.9077C40.6014 93.8615 40.7744 93.7882 40.9335 93.6903C41.3175 93.4805 42.645 92.425 43.1445 91.6919C44.0325 90.3891 44.328 90.1477 44.652 89.542L45.4605 90.7654C45.225 90.9243 44.7525 92.0007 44.313 92.5644C43.284 93.8912 42.558 94.7893 41.8575 95.1716C41.5163 95.3693 41.1478 95.5158 40.764 95.6064Z" fill="white"/>
<path d="M32.3356 104.404L30.4501 104.058C30.5656 103.537 29.8771 102.347 29.3251 101.391C29.0401 100.897 28.7461 100.388 28.4956 99.8823C27.5806 98.0293 28.3531 96.8839 28.9546 96.4971L30.0706 97.9138C30.0885 97.9046 30.1051 97.893 30.1201 97.8794C29.9971 97.9903 29.8636 98.4041 30.2491 99.1837C30.4741 99.6335 30.7546 100.125 31.0261 100.596C31.8271 101.978 32.5831 103.284 32.3356 104.404Z" fill="white"/>
<path d="M30.513 93.923C29.703 94.953 27.6165 96.3982 27.7665 96.9439C27.9165 97.4897 29.091 98.3952 29.6085 98.6021C30.126 98.809 32.1585 96.8945 32.6205 96.1748C33.0825 95.4552 32.931 94.0909 31.86 93.2438C31.467 92.9395 30.75 93.6231 30.513 93.923Z" fill="#D5DDE8"/>
<path d="M30.2655 104.306C30.2655 104.306 29.9145 105.113 29.76 105.245C29.6055 105.377 29.169 104.863 28.977 104.905C28.785 104.946 28.791 104.921 28.9545 105.119C29.118 105.317 29.2545 105.845 29.562 106.008C29.7124 105.996 29.8619 106.039 29.9835 106.128C30.1335 106.269 30.552 106.428 30.72 106.36C30.888 106.293 31.47 105.87 31.743 106.093C32.016 106.317 32.8395 103.994 32.1165 103.951C31.6192 103.911 31.1263 103.828 30.6435 103.702L30.2655 104.306Z" fill="white"/>
</svg>
